<svg xmlns="http://www.w3.org/2000/svg" viewBox="0 0 512 512">
  <defs>
    <radialGradient id="bg" cx="0.5" cy="0.5">
      <stop offset="0%" stop-color="#0d2334"/>
      <stop offset="100%" stop-color="#070a0e"/>
    </radialGradient>
    <linearGradient id="face" x1="0" y1="0" x2="1" y2="1">
      <stop offset="0%" stop-color="#00d4aa" stop-opacity="0.45"/>
      <stop offset="100%" stop-color="#00d4aa" stop-opacity="0.08"/>
    </linearGradient>
    <filter id="glow" x="-50%" y="-50%" width="200%" height="200%">
      <feGaussianBlur stdDeviation="6" result="b1"/>
      <feMerge><feMergeNode in="b1"/><feMergeNode in="SourceGraphic"/></feMerge>
    </filter>
  </defs>
  <rect width="512" height="512" rx="92" fill="url(#bg)"/>
  <line x1="40" y1="232" x2="68" y2="290" stroke="#00d4aa" stroke-width="7" stroke-linecap="round" filter="url(#glow)"/>
  <line x1="20" y1="256" x2="158" y2="256" stroke="#00d4aa" stroke-width="11" stroke-linecap="round" filter="url(#glow)"/>
  <polygon points="350,90 470,360 230,360" fill="none" stroke="#00d4aa" stroke-width="4" opacity="0.45" stroke-linejoin="round"/>
  <polygon points="260,130 380,400 140,400" fill="url(#face)" stroke="#00d4aa" stroke-width="7" stroke-linejoin="round" filter="url(#glow)"/>
  <g stroke="#00d4aa" stroke-width="4" opacity="0.45">
    <line x1="260" y1="130" x2="350" y2="90"/>
    <line x1="380" y1="400" x2="470" y2="360"/>
    <line x1="140" y1="400" x2="230" y2="360"/>
  </g>
  <polygon points="158,236 196,256 158,276" fill="#00d4aa" filter="url(#glow)"/>
  <g stroke-width="8" stroke-linecap="round" filter="url(#glow)">
    <line x1="380" y1="290" x2="492" y2="190" stroke="#388bfd"/>
    <line x1="382" y1="302" x2="492" y2="240" stroke="#ffd740"/>
    <line x1="384" y1="314" x2="492" y2="294" stroke="#69f0ae"/>
    <line x1="386" y1="326" x2="492" y2="348" stroke="#f85149"/>
    <line x1="388" y1="338" x2="492" y2="402" stroke="#b794f6"/>
  </g>
</svg>
